<?xml version="1.0" encoding="UTF-8"?>
<svg xmlns="http://www.w3.org/2000/svg" version="1.1" viewBox="0 0 113.39 170.08">
  <defs>
    <style>
      .cls-1 {
        fill: #fff;
      }
    </style>
  </defs>
  <!-- Generator: Adobe Illustrator 28.7.4, SVG Export Plug-In . SVG Version: 1.2.0 Build 166)  -->
  <g>
    <g id="Layer_1">
      <path class="cls-1" d="M106.22,4.22c1.24.9,1.61,2.03,1.34,3.49-3.34,17.85-11.93,33-26.16,45.32-3.22,2.79-6.66,4.31-11.07,3.43-.51-.1-1.07-.01-2.06-.01,3.58,4.89.21,7.34-3.46,9.76-6.34,4.19-12.77,8.28-18.85,12.79-1.8,1.34-2.54,3.95-4.09,6.52,3.56,0,6.25-.03,8.93,0,5.12.06,8.02,2.74,8.08,7.51.03,1.99.08,4-.2,5.95-.19,1.33-.56,3.01-1.53,3.8-2.49,2.04-1.5,4.58-1.67,6.94-.03.34.83.93,1.37,1.08,9.14,2.49,13.63,7.95,13.82,16.93.04,1.84.04,3.68.13,5.52.18,3.76-1.35,6.55-5.11,8.12H23.73c-.24-1-.78-2.05-.6-2.98.1-.49,1.46-1.04,2.27-1.06,4.94-.09,9.89-.03,14.83-.03,7.53,0,15.07,0,22.6-.04,2.71-.02,3.46-.78,3.47-3.35.01-2.58-.02-5.16-.14-7.73-.31-6.37-5.6-11.48-12.42-11.6-10.12-.18-20.25-.2-30.37-.02-7.22.12-12.3,4.78-13.04,11.55-.23,2.12-.18,4.27-.19,6.4-.03,4.36.4,4.69,5.05,4.89,1.02.04,2.51.5,2.87,1.19.33.63-.57,1.83-.93,2.78h-6.6c-3.73-1.79-5.11-4.67-4.73-8.53.32-3.29-.16-6.71.64-9.87,1.56-6.21,5.99-10.25,12.56-11.97,1.75-.46,2.2-1.23,2.19-2.76-.02-2.06.21-4.05-1.92-5.54-.71-.5-1.19-1.65-1.26-2.54-.22-3-.5-6.05-.19-9.03.35-3.39,3.38-5.56,7.06-5.6,3.77-.05,7.54-.07,11.3-.01,1.3.02,1.88-.33,2.29-1.58.93-2.82,1.3-5.6,1.41-8.6.27-7.78,1.23-15.54,1.98-23.3.31-3.19,1.55-5.77,5.49-5.89.04-.39.12-.58.05-.67-2.65-3.17-2.38-6.32-.07-9.56,3.22-4.52,6.33-9.11,9.52-13.64.86-1.23,2.11-2.01,3.56-.95,1.58,1.15.73,2.36-.17,3.64-3.26,4.59-6.4,9.25-9.59,13.87-1.03,1.49-.88,2.78.33,4.2,3.06,3.58,2.26,5.57-2.51,6.98-.71.21-1.74.8-1.83,1.34-.99,5.4-1.81,10.83-2.68,16.25.28.07.56.13.84.2.86-1.52,1.7-3.05,2.58-4.57,6.46-11.24,14.77-21.18,24.35-30.2,1.17-1.1,2.44-1.9,3.82-.53,1.33,1.3.23,2.33-.72,3.4-6.01,6.79-12.29,13.4-17.81,20.52-3.61,4.66-6.09,10.09-9.06,15.19-.13.23-.12.54-.3,1.49,5.99-4.26,11.49-8.14,16.91-12.12.38-.28.4-1.32.2-1.9-2.01-5.86-.43-7.65,6.12-6.74,2.73.38,5-.12,7.13-1.95,13.04-11.22,21.22-24.99,24.79-41.21.05-.21,0-.43,0-1.13-3.78.26-7.51.39-11.19.79-9.09.98-17.28,4.07-24.39,9.56-1.22.95-2.56,1.37-3.67-.05-1.03-1.32-.2-2.31.93-3.19,7-5.45,15.07-8.63,23.97-10.07,1.69-.27,3.36-.61,5.04-.91,4.24,0,8.48,0,12.73,0ZM38.33,101.18h0c4.15,0,8.31.02,12.46-.02,2.76-.02,3.52-.71,3.6-3.23.05-1.62.07-3.24.05-4.86-.03-2.61-.88-3.43-3.66-3.44-8.47-.02-16.93,0-25.4,0-2.1,0-3.26.96-3.32,2.91-.05,1.84.05,3.68.07,5.52.02,2.05,1,3.15,3.28,3.13,4.31-.03,8.62,0,12.93,0ZM50.97,105.54h-25.35c-.05.74-.11,1.31-.12,1.88q-.06,3.02,3.14,3.02c5.72,0,11.44,0,17.15,0,1.69,0,3.39,0,5.18,0v-4.9Z"/>
      <path class="cls-1" d="M17.13,141.4c.36-.95,1.26-2.15.93-2.78-.36-.69-1.85-1.15-2.87-1.19-4.65-.2-5.08-.52-5.05-4.89.01-2.14-.04-4.29.19-6.4.74-6.77,5.82-11.43,13.04-11.55,10.12-.17,20.25-.15,30.37.02,6.83.12,12.11,5.23,12.42,11.6.13,2.57.16,5.15.14,7.73-.01,2.57-.76,3.33-3.47,3.35-7.53.05-15.07.04-22.6.04-4.94,0-9.89-.06-14.83.03-.8.01-2.17.57-2.27,1.06-.19.92.36,1.98.6,2.98h-6.6ZM38.09,129.13v.09c3.37,0,6.73.01,10.1,0,1.44,0,2.47-.58,2.48-2.06.01-1.47-1.03-2.11-2.45-2.11-6.58-.01-13.16.02-19.74.05-1.5,0-2.72.6-2.68,2.15.04,1.44,1.23,1.9,2.65,1.89,3.21-.01,6.42,0,9.64,0Z"/>
      <path class="cls-1" d="M38.33,101.18c-4.31,0-8.62-.02-12.93,0-2.29.02-3.27-1.08-3.28-3.13-.01-1.84-.12-3.68-.07-5.52.06-1.96,1.22-2.92,3.32-2.91,8.47,0,16.93-.01,25.4,0,2.79,0,3.63.83,3.66,3.44.02,1.62,0,3.24-.05,4.86-.08,2.52-.83,3.21-3.6,3.23-4.15.03-8.31,0-12.46,0h0Z"/>
      <path class="cls-1" d="M50.97,105.54v4.9c-1.79,0-3.49,0-5.18,0-5.72,0-11.44,0-17.15,0q-3.19,0-3.14-3.02c.01-.57.07-1.14.12-1.88h25.35Z"/>
      <path class="cls-1" d="M38.09,129.13c-3.21,0-6.42,0-9.64,0-1.42,0-2.61-.45-2.65-1.89-.05-1.55,1.17-2.14,2.68-2.15,6.58-.04,13.16-.06,19.74-.05,1.42,0,2.46.64,2.45,2.11-.01,1.47-1.04,2.05-2.48,2.06-3.37.02-6.73,0-10.1,0v-.09Z"/>
    </g>
  </g>
</svg>