<?xml version="1.0" encoding="UTF-8"?>
<svg xmlns="http://www.w3.org/2000/svg" version="1.1" viewBox="0 0 113.39 170.08">
  <defs>
    <style>
      .cls-1 {
        fill: #fff;
      }
    </style>
  </defs>
  <!-- Generator: Adobe Illustrator 28.7.4, SVG Export Plug-In . SVG Version: 1.2.0 Build 166)  -->
  <g>
    <g id="Layer_1">
      <path class="cls-1" d="M-.23,84.83c1.4.27,2.27-.49,3.08-1.49,1.39-1.73,2.72-3.54,4.31-5.07,1.79-1.72,2.45-3.87,2.82-6.13.47-2.87,1.54-5.37,3.47-7.57.64-.73.91-1.81,1.22-2.77.23-.73.35-.94,1.32-.95-.31-.82-.6-1.59-.89-2.36-.64-1.65-.47-3.14.8-4.45,1.31-1.36,2.89-1.48,4.59-1,2.33.65,3.64,2.59,3.06,4.46q-.38,1.21.21,2.22c-.36,1.05-.7,2.05-1.1,3.21h-2.98c.1.91-.05,1.82.31,2.42,1.44,2.37,1.77,4.97,1.96,7.63.01.15.09.29.16.51.99-.35,1.67-.76,1.59-1.96-.05-.83.16-1.67.25-2.5.12.01.25.03.37.04l-.07,1.11c.07.06.14.11.21.17.72-.99,1.45-1.98,2.17-2.96,1.5.94,1.77,2.1,1.12,3.58-.67,1.51-1.23,3-2.83,3.89-.56.31-.78,1.24-1.21,1.99,1.06.38,2.35.22,2.5,1.71,1.18-.3,2.31-.56,3.42-.87,1.15-.33,2.1,0,2.84.86.73.84.56,1.8.06,2.71-.51.93-1.06,1.84-1.74,3.02,1.4-.08,2.45-.14,3.62-.21-.17-.64-.32-1.16-.5-1.82h2.12c.07-.48.12-.85.18-1.23.56,1.03,1.4,1.31,2.49,1.18.93-.11,1.88-.12,2.82-.18-.02-.11-.05-.22-.07-.32-.48-.32-.95-.64-1.43-.96.47-.42.87-.96,1.41-1.23,1.58-.78,1.16-2.33,1.54-3.58.38-1.25.7-2.55,1.32-3.68.57-1.05,1.59-1.59,2.95-1.52,1.65.08,3.14-.57,4.3-1.44v-5.44c-2.41-.38-4.89-1.04-7.39-1.07-2.42-.03-3.62-1.39-4.86-2.96.07-.12.14-.24.21-.36.62.4,1.25.8,1.96,1.25-.26-.74-.5-1.43-.75-2.11.11-.05.22-.1.32-.15.97.92,1.39,2.52,3.32,2.56-.29-.53-.48-.98-.75-1.38-.87-1.27-.73-2.08.44-2.97.79-.6,1.5-1.29,2.01-1.74,1,.86,2.08,1.77,3.12,2.71.97.89,1.9,1.82,2.88,2.77.75.11,1.66.34,2.56.34,1.7,0,3.4-.04,5.09-.24,1.16-.14,2.81-2.35,2.76-3.53-.27-5.62,1.26-10.91,3.02-16.15.53-1.59,1.16-3.17,1.48-4.81.11-.57-.49-1.37-.94-1.91-.18-.22-.89-.18-1.27-.04-1.37.51-1.72.31-2.36-1.01-.3-.62-.99-1.04-1.47-1.58-.4-.45-.74-.94-1.11-1.41l-.35.13c.17-.48.32-.98.52-1.45.42-1.01.45-1.95-.33-2.82-.18-.2-.31-.48-.36-.74-.61-2.95.53-5.62,3.06-7.17,3.4-2.09,5.52-2.12,8.03-.14,2.33,1.84,3.99,5.76,2.82,8.9-.31.84-.26,1.89-.13,2.81.17,1.2.61,1.32,1.73.72.97.5,1.45,1.23,1.28,2.36-.03.22.21.51.38.72,3.34,4.19,5.09,8.94,4.95,14.32-.04,1.38.33,2.41,1.55,3.16,1.12.69,1.09,1.83.78,2.92-.31,1.07-.46,2.06,0,3.16.19.47.03,1.21-.21,1.72-.45.98-.58,1.9-.48,3.01.09.96-.33,2.06-.79,2.96-1.52,2.95-1.46,5.99-1,9.15.24,1.68.17,3.42.18,5.13,0,.72-.02,1.34,1.01,1.12.31-.07.65-.05.84.16.53.34,1.02.77,1.59,1.01,2.92,1.21,6.08.59,9.25,1.11,0,.87.02,1.79,0,2.71-.03.88.24,1.3,1.24,1.31,3.62.02,7.24.1,10.86.24,1.52.06,3.02.33,4.76.53v11.32H-.23v-13.6Z"/>
    </g>
  </g>
</svg>