<?xml version="1.0" encoding="UTF-8"?>
<svg xmlns="http://www.w3.org/2000/svg" version="1.1" viewBox="0 0 113.39 170.08">
  <defs>
    <style>
      .cls-1 {
        fill: #fff;
      }
    </style>
  </defs>
  <!-- Generator: Adobe Illustrator 28.7.4, SVG Export Plug-In . SVG Version: 1.2.0 Build 166)  -->
  <g>
    <g id="Layer_1">
      <g>
        <path class="cls-1" d="M110.21,37.97v96.77c-35.01,0-70.02,0-105.04,0,0-36.46,0-72.93,0-109.39,35.01,0,70.02,0,105.04,0,0,3.72,0,7.43,0,11.15-.53-.69-1.15-1.09-2.09-.98-4.17.48-8.15,1.68-11.93,3.51-2.02.98-3.99,2.09-6.06,3.18-.13-.44-.22-.88-.39-1.29-.68-1.67-1.23-3.43-2.12-4.98-1.01-1.78-2.34-3.39-4.45-3.9-.92-.22-1.89-.28-2.84-.28-21.19-.01-42.38-.01-63.57,0-1.16,0-2.32.12-3.48.09-3.4-.09-6.54,2.93-7.33,5.8-.68,2.46-.73,4.9-.23,7.37.3,1.5.67,1.81,2.14,1.81,3.99,0,7.98.02,11.98-.01.74,0,1.08.13,1.13,1,.31,5.45.89,10.9.98,16.36.2,11.43.15,22.86.2,34.28,0,1.26.55,1.96,1.49,1.99.98.03,1.58-.71,1.57-2.01-.13-14.13-.16-28.25-.46-42.38-.09-4.21-.8-8.43-1.45-12.61-.45-2.89-1.42-5.67-3.17-8.33.64,0,1.07,0,1.5,0,18.08,0,36.17,0,54.25,0,1.64,0,3.28.03,4.91,0,1.67-.03,2.97.64,3.93,2.03,1.38,1.98,2.01,4.27,2.5,6.61.05.26-.24.68-.48.9-1.76,1.58-3.67,3.01-5.31,4.71-2.69,2.78-5.24,5.7-7.78,8.62-.51.58-.96.83-1.71.82-12.97-.02-25.93-.02-38.9-.02-.37,0-.76-.02-1.12.04-.77.13-1.22.64-1.27,1.43-.05.78.33,1.37,1.08,1.57.42.12.88.11,1.32.11,12.18,0,24.36,0,36.55,0,.36,0,.72,0,1.18,0-.86,1.64-1.69,3.12-2.41,4.65-.36.77-.83,1.01-1.65,1.01-11.19-.03-22.38-.02-33.58-.02-.38,0-.75,0-1.12.03-.84.08-1.31.62-1.36,1.44-.04.82.37,1.42,1.2,1.58.43.08.88.1,1.32.1,10.65,0,21.29,0,31.94,0,.39,0,.78,0,1.24,0-.5,1.48-1.01,2.78-1.35,4.12-.25.97-.64,1.31-1.66,1.3-10.07-.04-20.13-.03-30.2-.02-.44,0-.89.02-1.32.1-.79.15-1.17.73-1.16,1.5,0,.76.4,1.35,1.19,1.48.43.07.88.08,1.32.08,9.79,0,19.59,0,29.38,0h1.28c.05,1.51-.22,2.66-1.3,3.61-1.22,1.06-2.33,2.27-3.4,3.49-.36.42-.68,1.13-.61,1.65.17,1.32,1.65,1.63,2.68.61,1.38-1.36,2.7-2.78,4.07-4.15.28-.28.66-.55,1.03-.6,5.09-.7,9.85-2.32,14.22-5.13,1.36-.87,2.78-1.63,4.13-2.52,1.47-.98,2.89-2.05,4.44-3.16.15,13.36-.46,26.61.99,39.94-.5,0-.93,0-1.36,0-16.28,0-32.55,0-48.83,0-1.92,0-2.37.66-2.13,2.61.18,1.41.24,2.87.13,4.28-.21,2.65-1.82,4.3-4.32,4.7-2.57.4-4.19-.45-5.19-3.14-.81-2.18-1.48-4.44-1.87-6.73-.52-3.1-.68-6.26-1.07-9.39-.07-.53-.39-1.18-.8-1.45-.36-.24-1.19-.23-1.48.04-.41.39-.74,1.13-.72,1.69.1,2.24.28,4.48.56,6.7.48,3.75,1.05,7.51,2.8,10.91,1.06,2.05,2.28,4.04,4.72,4.6.85.2,1.76.25,2.64.25,21.19.01,42.38.01,63.57,0,1.16,0,2.32-.1,3.48-.1,3.55,0,6.25-2.49,7.29-5.69.82-2.5.77-5.03.26-7.57-.27-1.34-.69-1.71-2.01-1.71-2.42,0-4.85,0-7.27,0-1.73,0-3.47,0-5.25,0-.08-.5-.17-.9-.2-1.32-.28-4.62-.73-9.23-.8-13.85-.13-8.9-.06-17.81-.03-26.71,0-.45.24-1.04.56-1.34,3.19-2.94,5.83-6.37,8.38-9.88.22-.31.47-.62.6-.97.25-.72.14-1.41-.53-1.86-.64-.42-1.3-.4-1.88.15-.25.23-.44.54-.65.81-1.86,2.33-3.58,4.78-5.59,6.95-4.26,4.6-9.1,8.49-14.65,11.32-2.78,1.42-5.72,2.51-8.59,3.75-.09-.14-.18-.28-.27-.42,1.25-1.23,2.53-2.42,3.75-3.68,7.64-7.9,15.27-15.82,22.9-23.73,1.19-1.23,1.36-2.09.58-2.86-.78-.77-1.58-.58-2.79.68-4.74,4.93-9.46,9.88-14.22,14.8-3.87,4.01-7.77,7.99-11.65,11.97-.17.17-.37.32-.65.55,4.28-18.17,24.12-36.71,39.53-38.43-.67,2.36-1.21,4.66-1.99,6.88-.73,2.07-1.69,4.04-2.58,6.05-.53,1.21-.38,2.1.49,2.54.88.45,1.73.1,2.26-1.14,1.23-2.91,2.5-5.82,3.51-8.82.7-2.1,1-4.34,1.47-6.52ZM42.79,52.49c3.27,0,6.54,0,9.81,0,.27,0,.55.01.82-.02.88-.1,1.53-.77,1.47-1.58-.06-.88-.57-1.4-1.42-1.53-.33-.05-.68-.03-1.02-.03-5.83,0-11.65,0-17.48,0-.95,0-1.91-.04-2.86.03-.89.06-1.49.76-1.48,1.58.01.84.61,1.45,1.52,1.54.27.03.54.01.82.01,3.27,0,6.54,0,9.81,0ZM76.53,106.19c1.77,0,3.54.01,5.31,0,1.2-.01,1.91-.63,1.89-1.58-.01-.92-.69-1.55-1.83-1.56-3.58-.03-7.15-.02-10.73,0-1.14,0-1.81.63-1.83,1.55-.02.97.67,1.58,1.87,1.59,1.77.02,3.54,0,5.31,0Z"/>
        <path class="cls-1" d="M110.21,37.97c-.48,2.18-.77,4.42-1.47,6.52-1.01,3-2.28,5.91-3.51,8.82-.53,1.25-1.38,1.59-2.26,1.14-.87-.44-1.03-1.34-.49-2.54.89-2,1.85-3.98,2.58-6.05.78-2.22,1.32-4.52,1.99-6.88-15.41,1.72-35.25,20.26-39.53,38.43.28-.23.48-.37.65-.55,3.89-3.99,7.78-7.97,11.65-11.97,4.75-4.92,9.48-9.87,14.22-14.8,1.21-1.26,2.01-1.45,2.79-.68.78.77.6,1.63-.58,2.86-7.63,7.91-15.26,15.83-22.9,23.73-1.22,1.26-2.5,2.46-3.75,3.68.09.14.18.28.27.42,2.87-1.24,5.81-2.33,8.59-3.75,5.55-2.83,10.39-6.72,14.65-11.32,2.01-2.17,3.74-4.62,5.59-6.95.22-.27.4-.57.65-.81.58-.55,1.24-.57,1.88-.15.67.44.78,1.13.53,1.86-.12.35-.37.67-.6.97-2.55,3.51-5.19,6.94-8.38,9.88-.32.3-.56.88-.56,1.34-.03,8.9-.1,17.81.03,26.71.07,4.62.51,9.23.8,13.85.03.41.12.82.2,1.32,1.78,0,3.52,0,5.25,0,2.42,0,4.85,0,7.27,0,1.32,0,1.74.37,2.01,1.71.51,2.55.55,5.08-.26,7.57-1.04,3.19-3.74,5.68-7.29,5.69-1.16,0-2.32.1-3.48.1-21.19,0-42.38,0-63.57,0-.88,0-1.78-.05-2.64-.25-2.44-.56-3.66-2.55-4.72-4.6-1.75-3.4-2.33-7.15-2.8-10.91-.28-2.22-.46-4.46-.56-6.7-.03-.57.31-1.31.72-1.69.29-.27,1.12-.28,1.48-.04.41.27.73.92.8,1.45.39,3.13.55,6.29,1.07,9.39.39,2.29,1.06,4.56,1.87,6.73,1,2.69,2.62,3.55,5.19,3.14,2.5-.39,4.11-2.04,4.32-4.7.11-1.42.05-2.87-.13-4.28-.24-1.95.21-2.61,2.13-2.61,16.28,0,32.55,0,48.83,0,.43,0,.87,0,1.36,0-1.45-13.33-.85-26.58-.99-39.94-1.55,1.11-2.96,2.18-4.44,3.16-1.34.89-2.77,1.65-4.13,2.52-4.37,2.8-9.13,4.42-14.22,5.13-.36.05-.75.33-1.03.6-1.37,1.36-2.69,2.78-4.07,4.15-1.04,1.02-2.52.7-2.68-.61-.07-.52.25-1.23.61-1.65,1.07-1.23,2.18-2.43,3.4-3.49,1.09-.95,1.36-2.09,1.3-3.61h-1.28c-9.79,0-19.59,0-29.38,0-.44,0-.89,0-1.32-.08-.8-.13-1.18-.71-1.19-1.48,0-.77.37-1.35,1.16-1.5.43-.08.88-.1,1.32-.1,10.07,0,20.13-.02,30.2.02,1.02,0,1.41-.33,1.66-1.3.34-1.35.86-2.64,1.35-4.12-.46,0-.85,0-1.24,0-10.65,0-21.29,0-31.94,0-.44,0-.89-.01-1.32-.1-.83-.16-1.24-.76-1.2-1.58.04-.82.51-1.36,1.36-1.44.37-.04.75-.03,1.12-.03,11.19,0,22.38-.01,33.58.02.82,0,1.29-.23,1.65-1.01.72-1.53,1.55-3.01,2.41-4.65-.46,0-.82,0-1.18,0-12.18,0-24.36,0-36.55,0-.44,0-.9,0-1.32-.11-.75-.21-1.13-.79-1.08-1.57.05-.78.5-1.29,1.27-1.43.37-.06.75-.04,1.12-.04,12.97,0,25.93,0,38.9.02.75,0,1.21-.24,1.71-.82,2.55-2.92,5.09-5.84,7.78-8.62,1.64-1.7,3.55-3.13,5.31-4.71.24-.22.54-.64.48-.9-.48-2.34-1.12-4.62-2.5-6.61-.96-1.39-2.26-2.06-3.93-2.03-1.64.03-3.28,0-4.91,0-18.08,0-36.17,0-54.25,0-.43,0-.86,0-1.5,0,1.75,2.66,2.72,5.44,3.17,8.33.65,4.18,1.36,8.4,1.45,12.61.3,14.12.33,28.25.46,42.38.01,1.3-.59,2.04-1.57,2.01-.94-.03-1.49-.73-1.49-1.99-.06-11.43,0-22.86-.2-34.28-.09-5.46-.67-10.9-.98-16.36-.05-.87-.4-1.01-1.13-1-3.99.03-7.98.02-11.98.01-1.47,0-1.84-.31-2.14-1.81-.5-2.47-.45-4.91.23-7.37.79-2.86,3.93-5.89,7.33-5.8,1.16.03,2.32-.09,3.48-.09,21.19,0,42.38,0,63.57,0,.95,0,1.92.06,2.84.28,2.1.51,3.44,2.12,4.45,3.9.88,1.55,1.44,3.31,2.12,4.98.17.41.26.85.39,1.29,2.07-1.09,4.04-2.2,6.06-3.18,3.79-1.83,7.76-3.03,11.93-3.51.93-.11,1.55.29,2.09.98v1.47ZM39.33,124.76h1.38c19.14,0,38.27,0,57.41,0,.78,0,1.57-.03,2.35-.12,1.65-.19,3.03-.9,3.81-2.47.93-1.88.95-3.87.6-5.9h-63.86c.2,2.96.09,5.8-1.69,8.49ZM20.24,43.63c-.62-2.36-1.25-4.59-2.56-6.61-2-3.1-7.55-2.07-8.64,1.12-.61,1.79-.75,3.59-.38,5.48h11.58Z"/>
        <path class="cls-1" d="M42.79,52.49c-3.27,0-6.54,0-9.81,0-.27,0-.55.01-.82-.01-.9-.08-1.5-.7-1.52-1.54-.01-.82.59-1.52,1.48-1.58.95-.06,1.91-.03,2.86-.03,5.83,0,11.65,0,17.48,0,.34,0,.69-.02,1.02.03.85.13,1.36.65,1.42,1.53.06.81-.6,1.48-1.47,1.58-.27.03-.54.02-.82.02-3.27,0-6.54,0-9.81,0Z"/>
        <path class="cls-1" d="M76.53,106.19c-1.77,0-3.54.01-5.31,0-1.2-.01-1.9-.62-1.87-1.59.02-.92.69-1.54,1.83-1.55,3.58-.02,7.15-.03,10.73,0,1.14,0,1.82.64,1.83,1.56.01.95-.69,1.57-1.89,1.58-1.77.02-3.54,0-5.31,0Z"/>
        <path class="cls-1" d="M39.33,124.76c1.78-2.69,1.89-5.53,1.69-8.49h63.86c.35,2.02.33,4.02-.6,5.9-.78,1.57-2.16,2.28-3.81,2.47-.78.09-1.57.12-2.35.12-19.14,0-38.27,0-57.41,0h-1.38Z"/>
        <path class="cls-1" d="M20.24,43.63h-11.58c-.36-1.89-.23-3.69.38-5.48,1.09-3.2,6.64-4.23,8.64-1.12,1.31,2.02,1.94,4.25,2.56,6.61Z"/>
      </g>
    </g>
  </g>
</svg>