<?xml version="1.0" encoding="UTF-8"?>
<!DOCTYPE svg PUBLIC "-//W3C//DTD SVG 1.1//EN" "http://www.w3.org/Graphics/SVG/1.1/DTD/svg11.dtd">
<!-- Creator: CorelDRAW X7 -->
<svg xmlns="http://www.w3.org/2000/svg" xml:space="preserve" width="60mm" height="40mm" version="1.1" style="shape-rendering:geometricPrecision; text-rendering:geometricPrecision; image-rendering:optimizeQuality; fill-rule:evenodd; clip-rule:evenodd"
viewBox="0 0 6000 4000"
 xmlns:xlink="http://www.w3.org/1999/xlink">
 <defs>
  <style type="text/css">
   <![CDATA[
    .str1 {stroke:#FEFEFE;stroke-width:7.62;stroke-opacity:0.501961}
    .str0 {stroke:black;stroke-width:20}
    .fil0 {fill:none}
    .fil5 {fill:#FEFEFE;fill-opacity:0.501961}
    .fil3 {fill:#B3B3B3;fill-opacity:0.501961}
    .fil2 {fill:#FEFEFE;fill-rule:nonzero;fill-opacity:0.501961}
    .fil1 {fill:#999999;fill-rule:nonzero;fill-opacity:0.501961}
    .fil4 {fill:#B3B3B3;fill-rule:nonzero;fill-opacity:0.501961}
   ]]>
  </style>
 </defs>
 <g id="Layer_x0020_1">
  <metadata id="CorelCorpID_0Corel-Layer"/>
  <rect class="fil0 str0" x="8654" y="-13775" width="11653" height="7320"/>
  <path class="fil1" d="M2842 2589c-10,39 12,72 51,83 14,3 24,-2 30,-10 4,-6 2,-21 -3,-28 -12,-18 -26,-33 -40,-50 -7,-9 -14,-8 -21,1 3,7 7,14 10,21 -1,1 -2,1 -3,2 -8,-6 -16,-12 -24,-19zm81 116c-24,-1 -49,-1 -73,-4 -14,-3 -27,-12 -40,-19 -5,-3 -10,-8 -18,-15 -10,19 -20,36 -28,54 -25,59 -40,121 -47,184 -10,82 -16,164 -21,246 -11,164 33,311 132,441 28,37 57,72 86,108 3,4 7,9 11,13 -1,1 -2,3 -3,4 -24,-14 -50,-26 -71,-42 -170,-131 -293,-294 -329,-510 -9,-51 -8,-104 -11,-156 -1,-5 1,-12 4,-15 38,-47 66,-98 82,-155 21,-73 60,-136 101,-199 19,-29 38,-59 69,-78 23,-14 49,-26 75,-40 -6,-12 -29,-55 -37,-71 1,0 2,-1 3,-1 12,17 40,61 53,78 1,-1 3,-2 5,-3 -4,-24 -11,-76 -15,-100 1,0 2,-1 3,-1 9,24 19,77 28,101 1,0 2,0 3,0 3,-23 8,-75 11,-98 1,0 2,0 3,0 1,26 -1,82 -1,108 1,0 3,0 4,1 12,-23 32,-65 44,-88l3 1c-7,23 -24,65 -30,88 -2,5 0,13 3,17 25,30 35,64 32,101 -1,7 -6,13 -9,20 -7,10 -15,20 -22,30l0 0z"/>
  <path class="fil1" d="M2923 2705c9,4 19,8 28,12 1,-1 2,-2 3,-2 -3,-6 -7,-12 -12,-21 4,-3 10,-11 15,-10 5,1 14,8 15,13 6,21 9,43 14,68 -22,-17 -39,-30 -55,-44 -4,-4 -5,-11 -7,-16 0,0 -1,0 -1,0z"/>
  <path class="fil1" d="M2845 2415c-12,-3 -19,-10 -18,-23 1,-12 9,-19 21,-18 13,1 20,9 19,21 -1,13 -9,19 -22,20z"/>
  <path class="fil1" d="M2903 2376c12,3 20,9 19,22 0,13 -9,20 -21,19 -12,-1 -19,-8 -19,-20 0,-13 8,-19 21,-21z"/>
  <path class="fil1" d="M2943 2419c3,-12 10,-20 23,-18 12,2 19,11 17,23 -2,12 -10,18 -22,17 -13,-1 -18,-10 -18,-22z"/>
  <path class="fil1" d="M2811 2422c-2,13 -8,21 -21,20 -13,0 -20,-8 -20,-21 1,-12 8,-19 20,-19 13,0 20,8 21,20z"/>
  <path class="fil2" d="M2911 2646c-13,-12 -22,-21 -33,-31 -4,26 1,31 33,31zm-69 -57c8,7 16,13 24,19 1,-1 2,-1 3,-2 -3,-7 -7,-14 -10,-21 7,-9 14,-10 21,-1 14,17 28,32 40,50 5,7 7,22 3,28 -6,8 -16,13 -30,10 -39,-11 -61,-44 -51,-83z"/>
  <path class="fil1" d="M2911 2646c-32,0 -37,-5 -33,-31 11,10 20,19 33,31z"/>
  <path class="fil3" d="M4128 1468l56 -93c-292,-8 -771,244 -1013,408 -157,106 -256,186 -376,334 -82,100 -232,319 -279,437 91,-94 165,-230 275,-317 211,-167 540,-335 810,-377 132,-21 435,-34 561,-7 -11,5 -174,-4 -204,-3 -194,11 -331,60 -515,118 -195,61 -395,155 -552,287 109,-43 209,-115 328,-148 149,-40 282,-29 423,-53l-38 -42c118,54 232,53 360,63 130,10 264,33 392,41l-99 -73c203,61 234,132 453,20 -60,-10 -97,-15 -157,-34 -35,-11 -113,-47 -137,-52 149,-13 494,76 698,-34 79,-42 391,-281 430,-348 -54,-87 -361,-183 -463,-207 -194,-47 -357,26 -536,97 9,-49 187,-109 219,-139 -44,-20 -306,-8 -371,-5 -135,6 -169,45 -265,127z"/>
  <path class="fil3" d="M3508 768c6,-64 65,-126 89,-182 -42,16 -212,159 -261,197 -165,132 -134,161 -195,265l3 -74c-36,16 -281,319 -319,370 -192,256 -353,639 -440,948 -49,173 -36,476 -26,660 3,7 55,-418 108,-562 89,-239 357,-615 549,-784 84,-75 302,-227 404,-265 -179,153 -254,154 -453,389 -106,126 -289,355 -343,510 27,-21 75,-89 104,-119 68,-70 280,-299 339,-329l-22 -23c31,-15 62,-23 91,-38 30,-15 46,-33 74,-50 72,-41 469,-247 496,-251l-140 0c32,-24 196,-56 258,-89 58,-31 138,-121 157,-185 -105,44 -168,148 -310,124 44,-35 202,-103 266,-140 82,-49 146,-136 196,-216 80,-127 288,-426 204,-569 -144,4 -375,50 -508,108 -191,57 -277,253 -321,305z"/>
  <path class="fil3" d="M1271 1465l-85 -136c4,105 35,290 62,392 18,68 117,240 172,278l-85 -44c49,149 149,352 221,493 89,174 155,278 282,428 167,198 512,572 739,682 -30,-41 -116,-117 -156,-155 -128,-124 -329,-382 -404,-533 -125,-250 -263,-713 -259,-990 1,-1 145,542 189,675 41,128 73,180 141,292 33,53 132,238 164,271 -27,-100 -107,-263 -147,-369 -23,-63 -46,-125 -66,-188 -19,-60 -26,-181 -42,-217l-20 36c-6,-51 5,-127 5,-184 -1,-63 -2,-126 -3,-190 -2,-103 4,-277 -11,-372l-61 142c5,-88 31,-178 36,-268 4,-65 -59,-161 -85,-221 -3,52 6,105 2,161 -4,48 -25,102 -28,139 -8,-47 -5,-122 -10,-176 -5,-52 -14,-106 -25,-158 -21,-92 -54,-193 -98,-277 -72,-138 -227,-319 -380,-366 -132,174 -166,433 -119,649 17,77 54,140 71,206z"/>
  <path class="fil3" d="M2277 939c-31,-51 -20,-192 -22,-255 -34,74 -72,219 -96,303 -45,152 -56,180 -6,336 -33,-14 -42,-56 -64,-81 -35,170 -53,410 -63,584 -10,188 30,396 64,581 33,187 56,338 137,513 47,101 168,333 241,409 -48,-121 -123,-251 -163,-373 -48,-146 -56,-336 -53,-489 4,-187 -2,-303 50,-485 28,-99 92,-323 137,-406 4,9 -43,143 -49,168 -15,61 -23,129 -31,191 -5,46 -46,385 -35,405 1,1 112,-432 188,-587 83,-168 264,-395 304,-480l-107 89c110,-160 179,-175 164,-408 -29,58 -103,191 -151,229 39,-88 78,-136 109,-239 29,-98 45,-201 46,-303 1,-123 -62,-459 -160,-539 -72,40 -260,249 -315,321 -128,172 -105,317 -125,516z"/>
  <path class="fil4" d="M2966 3756c-6,0 -13,2 -20,1 -81,-11 -162,-18 -243,-34 -84,-17 -166,-41 -249,-64 -55,-15 -109,-30 -162,-50 -117,-44 -234,-87 -347,-139 -120,-55 -238,-114 -349,-183 -136,-84 -265,-179 -396,-272 -51,-37 -99,-80 -148,-120 1,-3 2,-5 2,-8l61 1c0,-2 1,-5 1,-8 -10,-4 -20,-10 -31,-12 -56,-10 -103,-35 -145,-75 -102,-94 -194,-198 -283,-304 -2,-3 -2,-6 -6,-15 58,30 111,58 164,86 2,-3 4,-6 6,-8 -18,-17 -35,-36 -55,-50 -57,-38 -120,-67 -170,-112 -42,-39 -70,-93 -100,-143 -50,-81 -82,-170 -104,-262 -14,-57 -18,-117 -26,-176 -2,-16 7,-23 23,-21 70,7 141,12 212,20 83,9 161,36 236,69 99,45 191,101 268,180 62,64 116,133 161,209 2,2 4,3 9,3 -25,-75 -71,-139 -114,-205 2,-2 3,-3 5,-5 17,11 36,21 53,33 39,29 82,56 117,90 23,23 38,54 51,84 22,50 40,102 65,152l-10 -60c3,-1 5,-2 7,-2 9,16 18,33 28,50 61,109 121,219 185,326 34,56 76,107 113,161 40,56 45,73 103,133 76,78 148,159 224,237 31,31 68,58 99,90 -273,-168 -514,-372 -725,-614 376,515 874,851 1491,1010 0,2 0,4 -1,7z"/>
  <path class="fil5 str1" d="M1044 2166c51,72 49,175 -33,237 -69,51 -177,46 -236,-35 -51,-69 -46,-174 35,-235 67,-51 178,-45 234,33zm157 404c2,-10 0,-15 0,-25l-12 -181c-8,-63 -24,-144 -56,-210 -77,-161 -283,-179 -398,-68 -114,109 -107,315 51,400 85,45 218,71 311,78 22,2 88,10 104,6zm-157 -404c-56,-78 -167,-84 -234,-33 -81,61 -86,166 -35,235 59,81 167,86 236,35 82,-62 84,-165 33,-237z"/>
  <path class="fil5 str1" d="M1691 1315c5,87 -51,173 -153,181 -84,7 -172,-54 -180,-153 -6,-85 53,-171 154,-180 83,-7 174,57 179,152zm-81 422c7,-8 8,-12 14,-21l85 -159c26,-57 55,-133 63,-205 20,-177 -143,-300 -298,-268 -154,32 -257,209 -168,363 47,83 145,175 220,230 17,13 69,55 84,60zm81 -422c-5,-95 -96,-159 -179,-152 -101,9 -160,95 -154,180 8,99 96,160 180,153 102,-8 158,-94 153,-181z"/>
  <path class="fil5 str1" d="M2567 661c3,1 6,1 9,1 -3,0 -6,0 -9,-1zm-151 612c11,-3 15,-7 25,-13l165 -104c56,-39 124,-96 171,-160 114,-156 26,-360 -139,-413 -162,-52 -354,60 -353,252 0,105 43,244 84,336 10,22 36,89 47,102z"/>
  <path class="fil5" d="M3873 1039c-78,48 -185,40 -244,-51 -48,-74 -36,-186 52,-243 75,-48 184,-36 242,52 49,73 35,190 -50,242zm-431 136c11,3 16,2 27,2l189 0c66,-4 151,-16 222,-44 173,-70 205,-282 97,-410 -106,-126 -321,-133 -419,26 -53,86 -89,222 -102,318 -4,23 -17,92 -14,108z"/>
  <path class="fil5" d="M3873 1039c85,-52 99,-169 50,-242 -58,-88 -167,-100 -242,-52 -88,57 -100,169 -52,243 59,91 166,99 244,51z"/>
  <path class="fil5 str1" d="M4676 1864c-92,4 -183,-56 -190,-164 -7,-89 58,-181 163,-188 89,-6 180,57 188,163 7,88 -61,184 -161,189zm-445 -90c8,8 12,9 22,15l167 91c59,28 140,60 216,69 187,23 318,-149 285,-313 -32,-163 -218,-273 -382,-181 -88,50 -186,153 -244,231 -14,18 -59,72 -64,88zm445 90c100,-5 168,-101 161,-189 -8,-106 -99,-169 -188,-163 -105,7 -170,99 -163,188 7,108 98,168 190,164z"/>
  <path class="fil3" d="M932 2208c1,-13 5,-19 4,-34 -5,-88 -149,-98 -157,0 -5,53 30,39 13,115 -28,126 146,236 224,177 32,-24 34,-59 39,-107 14,30 0,63 -6,89 63,-31 22,-237 -41,-131 -6,11 -22,56 -25,66l5 -45c-34,13 -49,24 -112,-18 19,3 66,21 79,19 15,-2 54,-24 49,-40 -9,-33 -37,14 -62,2l-59 -37c25,-2 48,0 51,-25 2,-13 -3,-18 -2,-31z"/>
  <path class="fil3" d="M2539 730c-34,20 -29,8 -65,47 -23,25 -27,40 -37,78 -10,-2 -13,-4 -24,0 -12,4 -13,7 -13,21 76,24 56,-60 99,-75 -1,13 -5,28 -8,40 -6,20 -11,22 -16,35 -15,33 13,88 -1,112 -9,17 -15,5 -43,18 -12,5 -14,10 -25,12 -22,5 -13,-1 -33,8 -2,25 1,66 16,78 15,-12 16,-31 28,-51 22,-12 59,-9 81,-27 21,-17 23,-55 34,-78 20,0 18,4 33,12 49,26 29,-12 44,78 2,17 3,17 -1,33 -9,38 22,29 52,18 11,-4 27,-8 33,-19 -13,-11 -36,-4 -55,-13 -8,-69 19,-95 -23,-130 -69,-59 -42,-36 -42,-106 12,6 9,12 20,22 16,14 42,18 56,29 10,8 11,15 26,18 10,-26 0,-31 -19,-39 -16,-6 -58,-41 -64,-65 -4,-18 2,-13 -9,-25 -10,-11 -12,-2 -8,-23l28 -2c2,-6 4,-10 7,-14 13,-24 3,-9 6,-28 2,-11 3,-5 4,-16 6,-56 -69,-53 -83,-32 0,0 -2,6 -3,7 -2,4 -3,6 -5,9 -15,32 12,27 10,68z"/>
  <path class="fil3" d="M1667 1433c-16,-46 -22,18 -42,-55 -39,-141 13,-52 44,-98 24,-35 2,-33 -1,-64 -3,-24 9,-40 -25,-61 -20,-12 -46,-12 -77,3 -73,34 -9,94 -11,122 -73,49 -225,-4 -128,168 -23,0 -35,0 -58,12 3,27 11,38 23,53 29,-16 -1,-17 22,-27 17,-8 32,16 83,-8l6 -4c21,-11 0,-41 -7,-55l36 -14 48 51c39,-9 58,-22 87,-23z"/>
  <path class="fil3" d="M3852 743c-27,-2 -21,-8 -59,8 -59,24 -57,23 -91,68 -11,14 -23,22 -22,36 30,25 43,-52 84,-60l8 -1 -19 34c-8,14 -19,15 -32,24 -34,23 -82,79 -100,86l-67 10c-21,4 -16,-4 -33,-3 -6,7 -8,16 -12,25 -7,17 -11,24 -1,38 19,26 17,-15 19,-18 6,-7 73,-11 91,-15 26,-5 17,3 45,-16 13,-9 36,-28 48,-34 2,10 2,1 -2,12 -2,5 -5,10 -7,14 -4,9 -7,16 -11,26l-33 78c-6,12 -15,27 -16,40 -5,35 -6,16 -11,38 9,7 40,15 55,20 10,2 13,3 20,-1 -13,-36 -51,-19 -33,-52 31,-56 56,-113 92,-168 7,-11 15,-18 21,-30 12,-19 6,-16 27,-38 6,23 12,53 8,75 12,11 12,11 24,7 5,-12 1,-23 -2,-45 -4,-41 -7,-51 14,-91 21,-41 0,-27 17,-46l12 6c7,2 4,1 12,-2 20,-9 9,-5 19,-18 13,-16 26,-23 11,-46 -14,-21 -33,-27 -49,-14 -23,18 -12,35 -27,53z"/>
  <path class="fil3" d="M4853 1601c-18,1 -9,-4 -9,-15 -7,-10 -5,-24 -41,-33 -6,-2 -12,-2 -18,-2 -6,-1 -12,0 -19,0 -26,-1 -94,9 -122,11 -24,2 -95,23 -124,33l-19 8c-10,5 -5,13 3,36 -6,3 -73,20 -89,24l-64 20c-10,3 1,-6 -25,2 -10,3 -17,1 -20,11 -3,9 -2,65 14,69 5,1 9,-3 13,-7 4,12 12,35 21,39 8,4 13,-5 14,-8 2,-7 -3,-16 0,-22 4,-3 21,-3 28,-4 10,-2 22,-6 32,-9 19,-6 44,-13 68,-20l181 -57 -5 17 0 0c0,2 0,4 -1,7 -2,5 -3,8 -5,13 -1,7 -6,19 -4,27 5,4 19,8 11,17 0,1 -7,-2 -11,-2 -6,-1 -9,1 -15,3 -1,0 -277,88 -283,93l4 14c11,-4 23,-6 33,-9l250 -80c23,-7 17,6 17,13 0,5 2,6 5,9 -5,10 -10,4 -20,7 -16,5 -9,27 17,18 12,-4 20,-15 22,-24 29,-10 6,-20 18,-49 2,-6 5,-9 8,-16 2,-6 3,-10 6,-16l15 -32c6,-7 -4,-15 10,-19 26,-8 41,-6 72,-20 3,3 4,9 7,13 2,3 2,6 3,8 4,8 14,0 22,5 2,1 1,1 4,2 13,5 12,-1 23,-7l0 0c0,0 1,-1 2,-1l0 0c8,-2 30,-13 32,-41 0,-15 -7,-28 -18,-31 -7,-1 -13,0 -21,1 -9,3 1,-2 -22,4z"/>
 </g>
</svg>
